<?xml version="1.0" encoding="UTF-8" standalone="no"?>
<svg
   xmlns:dc="http://purl.org/dc/elements/1.1/"
   xmlns:cc="http://creativecommons.org/ns#"
   xmlns:rdf="http://www.w3.org/1999/02/22-rdf-syntax-ns#"
   xmlns:svg="http://www.w3.org/2000/svg"
   xmlns="http://www.w3.org/2000/svg"
   version="1.1"
   id="svg4508"
   viewBox="0 0 256 256"
   height="256"
   width="256">
  <defs
     id="defs4510" />
  <metadata
     id="metadata4513">
    <rdf:RDF>
      <cc:Work
         rdf:about="">
        <dc:format>image/svg+xml</dc:format>
        <dc:type
           rdf:resource="http://purl.org/dc/dcmitype/StillImage" />
        <dc:title></dc:title>
      </cc:Work>
    </rdf:RDF>
  </metadata>
  <g
     transform="translate(0,-796.36216)"
     id="layer1">
    <g
       id="g211"
       transform="matrix(2.5968937,0,0,3.1959546,-1278.2984,725.507)">
      <path
         id="path213"
         d="m 543.364,27.267 c 0.475,3.535 0.541,7.995 4.064,12.523 2.71,3.457 5.751,6.599 7.842,9.378 2.766,3.651 4.711,8.036 4.712,12.417 10e-4,6.987 -3.347,14.185 -5.645,18.28 -0.364,0.02 -0.729,0.04 -1.094,0.057 1.623,-3.847 4.858,-10.124 4.588,-16.572 -0.135,-3.611 -1.481,-7.521 -3.777,-10.5 -2.563,-3.464 -6.894,-6.426 -10.69,-6.729 0,13.331 0,26.661 0,39.991 0,3.167 -1.832,6.122 -4.475,8.185 -2.576,2.069 -5.964,3.144 -8.936,2.84 -1.892,-0.186 -3.644,-1.033 -4.854,-2.218 -1.279,-1.196 -2.019,-2.79 -2.019,-4.544 0,-2.765 1.88,-5.311 4.442,-7.198 2.562,-1.945 5.808,-3.216 8.52,-3.156 2.371,0.056 4.451,0.331 5.673,1.528 0,-18.099 0,-36.197 0,-54.295 0.551,0 1.1,0.005 1.649,0.013 z" />
    </g>
  </g>
</svg>
