<?xml version="1.0" encoding="UTF-8" standalone="no"?>
<svg
   xmlns:dc="http://purl.org/dc/elements/1.1/"
   xmlns:cc="http://creativecommons.org/ns#"
   xmlns:rdf="http://www.w3.org/1999/02/22-rdf-syntax-ns#"
   xmlns:svg="http://www.w3.org/2000/svg"
   xmlns="http://www.w3.org/2000/svg"
   version="1.1"
   id="svg4508"
   viewBox="0 0 256 256"
   height="256"
   width="256">
  <defs
     id="defs4510" />
  <metadata
     id="metadata4513">
    <rdf:RDF>
      <cc:Work
         rdf:about="">
        <dc:format>image/svg+xml</dc:format>
        <dc:type
           rdf:resource="http://purl.org/dc/dcmitype/StillImage" />
        <dc:title></dc:title>
      </cc:Work>
    </rdf:RDF>
  </metadata>
  <g
     transform="translate(0,-796.36216)"
     id="layer1">
    <g
       id="g7"
       transform="matrix(2.0985806,0,0,3.1998526,-784.24354,724.9155)">
      <path
         id="path9"
         d="m 436.163,86.135 c 0,3.171 -1.871,6.125 -4.516,8.182 -2.576,2.064 -5.962,3.131 -8.934,2.824 -1.893,-0.189 -3.645,-1.037 -4.854,-2.222 -1.278,-1.196 -2.019,-2.79 -2.019,-4.544 0,-2.765 1.88,-5.311 4.442,-7.197 2.562,-1.944 5.808,-3.213 8.519,-3.15 2.37,0.058 4.309,0.335 5.528,1.538 0,-18.115 0,-36.23 0,-54.345 0.61,-0.001 1.221,0.001 1.832,0.009 0.136,2.546 0.501,6.095 3.416,8.92 3.32,3.128 6.36,6.308 8.453,9.115 2.768,3.687 4.715,8.121 4.715,12.518 0,2.237 -0.336,4.539 -0.94,6.723 1.142,2.308 1.746,4.716 1.746,7.487 0,4.722 -1.358,8.721 -3.314,12.177 -0.363,0.03 -0.728,0.059 -1.092,0.087 1.415,-2.321 3.063,-7.593 2.928,-10.84 -0.135,-3.605 -0.401,-5.686 -2.692,-8.547 -2.626,-3.26 -9.419,-6.853 -13.219,-9.616 0.001,10.294 0.001,20.587 0.001,30.881 z m 14.836,-27.704 c -0.136,-3.618 -1.887,-6.481 -4.181,-9.488 -2.632,-3.432 -6.858,-6.469 -10.655,-8.75 0.136,5.077 3.28,10.308 6.19,13.09 3.316,3.066 4.938,4.69 6.893,7.185 0.606,0.76 1.068,1.646 1.538,2.398 0.138,-1.436 0.28,-3.273 0.215,-4.435 z" />
    </g>
  </g>
</svg>
