<?xml version="1.0" encoding="UTF-8" standalone="no"?>
<svg
   xmlns:dc="http://purl.org/dc/elements/1.1/"
   xmlns:cc="http://creativecommons.org/ns#"
   xmlns:rdf="http://www.w3.org/1999/02/22-rdf-syntax-ns#"
   xmlns:svg="http://www.w3.org/2000/svg"
   xmlns="http://www.w3.org/2000/svg"
   version="1.1"
   id="svg4508"
   viewBox="0 0 256 256"
   height="256"
   width="256">
  <defs
     id="defs4510" />
  <metadata
     id="metadata4513">
    <rdf:RDF>
      <cc:Work
         rdf:about="">
        <dc:format>image/svg+xml</dc:format>
        <dc:type
           rdf:resource="http://purl.org/dc/dcmitype/StillImage" />
        <dc:title></dc:title>
      </cc:Work>
    </rdf:RDF>
  </metadata>
  <g
     transform="translate(0,-796.36216)"
     id="layer1">
    <g
       id="g171"
       transform="matrix(3.0691735,0,0,3.2718397,-1152.7584,154.92093)">
      <path
         id="path173"
         d="m 427.481,257.586 c 0,3.029 -1.903,6.089 -4.54,8.368 -2.567,2.276 -5.963,3.625 -8.943,3.457 -1.895,-0.095 -3.653,-0.896 -4.864,-2.065 -1.28,-1.18 -2.02,-2.777 -2.02,-4.53 0,-2.766 1.879,-5.309 4.449,-7.239 2.568,-1.989 5.824,-3.347 8.535,-3.407 2.373,-0.051 4.352,0.104 5.563,1.176 0,-17.488 0,-34.974 0,-52.462 0.606,0.08 1.214,0.166 1.819,0.263 10e-4,18.812 10e-4,37.624 10e-4,56.439 z" />
    </g>
  </g>
</svg>
