<?xml version="1.0" encoding="UTF-8" standalone="no"?>
<svg
   xmlns:dc="http://purl.org/dc/elements/1.1/"
   xmlns:cc="http://creativecommons.org/ns#"
   xmlns:rdf="http://www.w3.org/1999/02/22-rdf-syntax-ns#"
   xmlns:svg="http://www.w3.org/2000/svg"
   xmlns="http://www.w3.org/2000/svg"
   version="1.1"
   id="svg4508"
   viewBox="0 0 256 256"
   height="256"
   width="256">
  <defs
     id="defs4510" />
  <metadata
     id="metadata4513">
    <rdf:RDF>
      <cc:Work
         rdf:about="">
        <dc:format>image/svg+xml</dc:format>
        <dc:type
           rdf:resource="http://purl.org/dc/dcmitype/StillImage" />
        <dc:title></dc:title>
      </cc:Work>
    </rdf:RDF>
  </metadata>
  <g
     transform="translate(0,-796.36216)"
     id="layer1">
    <path
       id="path148"
       d="m 150.63145,812.38573 -4.03168,0 -89.464628,0 0,12.0373 0,0.57458 0,162.75484 c -2.682739,-3.60544 -7.159003,-4.75458 -12.382993,-4.75458 -5.961605,0 -13.120608,4.24466 -18.794237,10.80914 -5.668597,6.36339 -9.846773,15.06099 -9.846773,23.75859 0,5.5159 1.641973,10.1772 4.476263,13.3588 2.687787,3.1746 6.562828,5.0922 10.74102,5.0922 6.562828,0 14.019886,-3.8209 19.688483,-10.1916 5.815102,-6.3562 10.144845,-14.8885 10.144845,-24.4336 l 0,-176.39379 85.43298,0 0,162.75484 c -2.68273,-3.60544 -7.15899,-4.75458 -12.37793,-4.75458 -5.96667,0 -13.12566,4.24466 -18.79424,10.80914 -5.6686,6.36339 -9.84677,15.06099 -9.84677,23.75859 0,5.5159 1.64197,10.1772 4.47626,13.3588 2.68777,3.1746 6.56283,5.0922 10.741,5.0922 6.56283,0 14.01486,-3.8209 19.6885,-10.1916 5.81511,-6.3562 10.14485,-14.7737 10.14485,-24.3115 l 0,-176.51589 85.43298,0 0,162.64712 c -2.68778,-3.60544 -7.15899,-4.63968 -12.38298,-4.63968 -5.96667,0 -13.12566,4.24466 -18.79425,10.80915 -5.66859,6.3634 -9.84678,15.061 -9.84678,23.7586 0,5.5159 1.63693,10.1771 4.47627,13.3587 2.68273,3.1746 6.56284,5.0922 10.73597,5.0922 6.56283,0 14.0199,-3.8209 19.68848,-10.1915 5.82015,-6.3562 10.14991,-14.7736 10.14991,-24.3115 l 0,-176.52309 0,-0.57458 0,-12.0373 -89.45455,0 z" />
  </g>
</svg>
